<svg version="1.2" xmlns="http://www.w3.org/2000/svg" viewBox="0 0 250 250" width="200" height="100"><style></style><path  d="m96.9 95.8l-2.9 16.5h-11.9l-7.3 41.7h-19.3l7.2-41.7h-12.2l3-16.5zm-43.9 52.9l-0.9 5-46.6-5zm3.7-21.2l-0.9 4.9-46.6-4.9zm1.9-10.6l-0.9 5-46.7-5zm-10.5-10.5l-0.9 4.9-46.6-4.9zm1.7-10.6l-0.7 5-46.7-5zm5.1 42.3l-0.9 4.9-46.6-4.9zm71.1-42.3h28q16 0 16 14.5 0 6.6-2.6 13.8-2.6 7-8.9 10.5l6.3 19.4h-20.6l-4.2-16.9h-2.6l-3 16.9h-18.5zm23.2 22.9l0.7-3.9q0-0.1 0.1-1.1 0-1.8-5.8-1.8h-2.5l-1.7 10.1h3.5q5.1 0 5.7-3.3zm-36.1 30l-0.8 5-46.7-5zm3.8-21.2l-0.9 4.9-46.7-4.9zm1.9-10.6l-0.9 5-46.6-5zm1.9-10.5l-0.9 4.9-46.7-4.9zm1.8-10.6l-0.8 4.9-46.6-4.9zm-7.4 42.2l-0.9 5-46.6-5zm77.6 15.7l-46-5h47.5zm-37.5-47.3h47.4q-0.7 1.8-1.4 5zm44.6 14.6v0.9l-46.6-5h46.8q-0.2 2.7-0.2 4.1zm-2.1 17l-1.5 4.9-45.9-4.9zm-35-42.2h47.5q-3 2.2-4.6 4.6zm-5.2 31.7h43.3q1 2.9 3.2 5zm92.5-30.5l-5.3 16q-7.5-1.7-12.7-1.7-5.3 0-7.8 0.3l-0.6 3.2 5.5 0.7q17.7 2.3 17.7 14.6 0 1.4-0.6 5.4-0.7 3.8-2.2 7.5-1.6 3.6-4 5.9-2.3 2.2-4.6 3.6-2.2 1.3-5.7 1.9-5.5 0.9-14.8 0.9-9.1 0-18.5-2.5l5.4-16.3q8.6 2.4 15 2.4 6.5 0 9.1-0.3l0.6-3.6-7-0.7q-8.9-1-12.6-4.2-3.8-3.2-3.8-9.1 0-2.2 0.6-5.5 2.2-11.8 7.9-16.3 5.7-4.5 17.4-4.5 11.8 0 21 2.3z"/></svg>